<?xml version="1.0" standalone="no"?>
<!DOCTYPE svg PUBLIC "-//W3C//DTD SVG 20010904//EN"
 "http://www.w3.org/TR/2001/REC-SVG-20010904/DTD/svg10.dtd">
<svg version="1.0" xmlns="http://www.w3.org/2000/svg"
 width="512.000000pt" height="512.000000pt" viewBox="0 0 512.000000 512.000000"
 preserveAspectRatio="xMidYMid meet">

<g transform="translate(0.000000,512.000000) scale(0.100000,-0.100000)"
fill="#000000" stroke="none">
<path d="M3305 4935 c-24 -23 -25 -29 -25 -160 l0 -135 -95 0 c-88 0 -98 -2
-120 -25 -25 -24 -25 -24 -25 -240 l0 -215 -55 0 c-46 0 -60 -4 -80 -25 -25
-24 -25 -24 -25 -240 l0 -215 -95 0 c-88 0 -98 -2 -120 -25 -24 -23 -25 -29
-25 -160 l0 -135 -80 0 -80 0 0 135 c0 131 -1 137 -25 160 -20 21 -34 25 -80
25 l-55 0 0 135 c0 131 -1 137 -25 160 -32 33 -78 33 -110 0 -24 -23 -25 -29
-25 -160 l0 -135 -55 0 c-46 0 -60 -4 -80 -25 l-25 -24 0 -991 0 -991 25 -24
c32 -33 78 -33 110 0 l25 24 0 776 0 775 240 0 240 0 0 -775 0 -776 25 -24
c32 -33 78 -33 110 0 24 23 25 29 25 160 l0 135 120 0 120 0 0 -135 c0 -131 1
-137 25 -160 32 -33 78 -33 110 0 24 23 25 29 25 160 l0 135 160 0 160 0 0
-135 c0 -131 1 -137 25 -160 32 -33 78 -33 110 0 l25 24 0 296 0 295 120 0
120 0 0 -295 0 -296 25 -24 c32 -33 78 -33 110 0 l25 24 0 296 0 295 120 0
120 0 0 -774 c0 -747 1 -775 19 -797 18 -23 25 -24 189 -29 152 -4 174 -7 198
-26 53 -39 69 -71 69 -134 0 -63 -16 -95 -69 -134 l-27 -21 -1790 -3 -1789 -2
0 230 0 231 -25 24 c-32 33 -78 33 -110 0 l-25 -24 0 -286 0 -286 25 -25 24
-24 1858 2 1858 3 63 34 c70 38 100 69 140 145 l27 51 0 1125 0 1125 -34 63
c-37 69 -80 109 -151 144 -40 20 -64 23 -222 26 l-177 4 -25 -26 -26 -25 0
-216 0 -215 -120 0 -120 0 0 615 0 616 -25 24 c-22 23 -32 25 -120 25 l-95 0
0 215 c0 216 0 216 -25 240 -20 21 -34 25 -80 25 l-55 0 0 215 c0 216 0 216
-25 240 -22 23 -32 25 -120 25 l-95 0 0 135 c0 131 -1 137 -25 160 -15 16 -36
25 -55 25 -19 0 -40 -9 -55 -25z m215 -615 l0 -160 -160 0 -160 0 0 160 0 160
160 0 160 0 0 -160z m-160 -480 l0 -160 -160 0 -160 0 0 160 0 160 160 0 160
0 0 -160z m320 0 l0 -160 -80 0 -80 0 0 160 0 160 80 0 80 0 0 -160z m-1360
-400 l0 -80 -80 0 -80 0 0 80 0 80 80 0 80 0 0 -80z m720 -160 l0 -240 -120 0
-120 0 0 240 0 240 120 0 120 0 0 -240z m480 160 l0 -80 -160 0 -160 0 0 80 0
80 160 0 160 0 0 -80z m400 0 l0 -80 -120 0 -120 0 0 80 0 80 120 0 120 0 0
-80z m-400 -320 l0 -80 -160 0 -160 0 0 80 0 80 160 0 160 0 0 -80z m400 -160
l0 -240 -120 0 -120 0 0 240 0 240 120 0 120 0 0 -240z m-880 -160 l0 -80
-120 0 -120 0 0 80 0 80 120 0 120 0 0 -80z m480 0 l0 -80 -160 0 -160 0 0 80
0 80 160 0 160 0 0 -80z m1206 -106 c15 -11 37 -33 48 -48 21 -27 21 -36 24
-957 1 -511 0 -929 -3 -929 -3 0 -20 8 -38 17 -23 12 -66 18 -154 21 l-123 4
0 960 0 960 109 -4 c92 -2 114 -6 137 -24z m-1686 -374 l0 -240 -120 0 -120 0
0 240 0 240 120 0 120 0 0 -240z m480 160 l0 -80 -160 0 -160 0 0 80 0 80 160
0 160 0 0 -80z m400 0 l0 -80 -120 0 -120 0 0 80 0 80 120 0 120 0 0 -80z
m-400 -320 l0 -80 -160 0 -160 0 0 80 0 80 160 0 160 0 0 -80z"/>
<path d="M480 4039 c-118 -23 -229 -112 -283 -227 -29 -61 -32 -76 -32 -162
l1 -95 193 -530 c107 -291 203 -540 214 -552 37 -41 105 -27 126 25 11 27 4
52 -79 282 -50 139 -88 256 -83 260 13 11 134 52 139 47 14 -13 653 -1792 647
-1798 -18 -16 -134 -51 -142 -43 -4 5 -90 236 -190 514 -119 328 -190 511
-203 523 -46 39 -128 5 -128 -54 0 -13 91 -275 202 -582 l201 -557 251 -238
c137 -130 265 -249 284 -264 l35 -28 1199 0 1199 0 24 25 25 24 0 351 0 351
-25 24 c-32 33 -78 33 -110 0 -23 -22 -25 -31 -25 -123 l0 -100 -34 -6 c-67
-13 -171 -74 -229 -135 -57 -60 -111 -156 -123 -218 l-6 -33 -284 0 -284 0 0
295 0 296 -25 24 -24 25 -271 0 -271 0 -24 -25 -25 -24 0 -296 0 -295 -288 0
-288 0 4 32 c2 18 18 161 37 318 l33 285 -444 1223 c-244 672 -453 1241 -465
1264 -48 94 -164 176 -278 198 -62 11 -88 11 -151 -1z m149 -165 c71 -21 123
-70 157 -149 15 -36 25 -67 23 -70 -8 -7 -443 -164 -446 -161 -2 2 -13 30 -24
62 -48 136 13 270 143 315 65 23 81 23 147 3z m259 -426 c25 -69 34 -98 30
-98 -2 0 -103 -36 -223 -80 -120 -44 -220 -78 -223 -76 -10 10 -52 139 -47
144 7 7 416 159 432 161 6 0 20 -23 31 -51z m100 -275 c5 -16 152 -419 326
-897 174 -477 314 -872 311 -876 -7 -11 -135 -53 -141 -47 -11 10 -655 1789
-650 1794 5 5 127 52 138 52 3 1 10 -11 16 -26z m630 -2152 c-12 -110 -26
-201 -30 -201 -9 0 -298 272 -298 280 0 6 343 129 348 125 2 -1 -7 -93 -20
-204z m1182 99 l0 -80 -55 0 c-67 0 -105 -29 -105 -80 0 -51 38 -80 105 -80
l55 0 0 -80 0 -80 -160 0 -160 0 0 240 0 240 160 0 160 0 0 -80z m1117 -397
c-3 -2 -54 -2 -115 -1 l-112 3 24 51 c30 65 85 120 150 150 l51 24 3 -112 c1
-61 1 -112 -1 -115z"/>
<path d="M2345 3015 c-50 -49 -15 -135 55 -135 41 0 80 39 80 80 0 41 -39 80
-80 80 -19 0 -40 -9 -55 -25z"/>
<path d="M2345 2695 c-50 -49 -15 -135 55 -135 41 0 80 39 80 80 0 41 -39 80
-80 80 -19 0 -40 -9 -55 -25z"/>
<path d="M1654 2377 c-20 -17 -27 -33 -27 -57 0 -51 39 -80 109 -80 66 0 104
29 104 80 0 51 -38 80 -104 80 -43 0 -61 -5 -82 -23z"/>
<path d="M2345 2375 c-50 -49 -15 -135 55 -135 19 0 40 9 55 25 16 15 25 36
25 55 0 19 -9 40 -25 55 -15 16 -36 25 -55 25 -19 0 -40 -9 -55 -25z"/>
<path d="M2345 2055 c-50 -49 -15 -135 55 -135 19 0 40 9 55 25 16 15 25 36
25 55 0 19 -9 40 -25 55 -15 16 -36 25 -55 25 -19 0 -40 -9 -55 -25z"/>
</g>
</svg>
