<?xml version="1.0" standalone="no"?>
<!DOCTYPE svg PUBLIC "-//W3C//DTD SVG 20010904//EN"
 "http://www.w3.org/TR/2001/REC-SVG-20010904/DTD/svg10.dtd">
<svg version="1.0" xmlns="http://www.w3.org/2000/svg"
 width="512.000000pt" height="512.000000pt" viewBox="0 0 512.000000 512.000000"
 preserveAspectRatio="xMidYMid meet">

<g transform="translate(0.000000,512.000000) scale(0.100000,-0.100000)"
fill="#000000" stroke="none">
<path d="M466 4949 c-62 -15 -153 -68 -197 -116 -22 -24 -55 -74 -72 -111
l-32 -67 0 -2096 0 -2095 37 -76 c45 -91 103 -147 196 -191 l67 -32 1663 -3
1663 -2 24 24 25 25 0 1071 0 1071 -25 24 c-32 33 -78 33 -110 0 l-25 -24 0
-695 0 -696 -1608 -2 -1608 -3 -72 -36 -72 -35 0 1854 c0 1427 3 1864 12 1896
16 55 99 138 154 154 32 9 409 12 1618 12 l1576 0 0 -135 c0 -131 1 -137 25
-160 32 -33 78 -33 110 0 25 24 25 26 25 215 0 189 0 191 -25 215 l-24 25
-1643 -1 c-950 -1 -1659 -5 -1682 -10z m3214 -4389 l0 -240 -1576 0 c-1209 0
-1586 3 -1618 12 -55 16 -138 99 -154 154 -28 94 -8 169 63 239 27 28 66 56
85 62 25 8 494 11 1618 12 l1582 1 0 -240z"/>
<path d="M4265 4935 c-16 -15 -25 -36 -25 -55 0 -19 9 -40 25 -55 23 -24 31
-25 137 -25 l113 -1 -50 -45 c-80 -72 -325 -254 -432 -320 -299 -186 -583
-314 -908 -409 -317 -92 -580 -132 -930 -142 -221 -6 -230 -7 -252 -29 -32
-32 -30 -78 3 -111 l26 -26 227 6 c401 11 720 65 1084 183 452 148 881 387
1252 698 l100 83 5 -124 c5 -116 7 -126 29 -144 32 -26 77 -24 106 6 l25 24 0
231 0 231 -25 24 -24 25 -231 0 -231 0 -24 -25z"/>
<path d="M1083 4547 c-12 -7 -135 -162 -272 -346 -270 -360 -275 -368 -226
-416 22 -23 32 -25 120 -25 l95 0 0 -175 c0 -173 0 -176 25 -200 15 -16 36
-25 55 -25 19 0 40 9 55 25 l25 24 0 231 0 231 -25 24 c-20 21 -34 25 -80 25
l-55 0 156 208 c85 114 159 207 164 207 5 0 79 -93 164 -207 l156 -208 -55 0
c-46 0 -60 -4 -80 -25 l-25 -24 0 -231 0 -231 25 -24 c15 -16 36 -25 55 -25
19 0 40 9 55 25 25 24 25 27 25 200 l0 175 95 0 c88 0 98 2 120 25 49 48 44
56 -226 416 -137 184 -260 339 -272 346 -12 7 -29 12 -37 12 -8 0 -25 -5 -37
-12z"/>
<path d="M4345 4135 l-25 -24 0 -751 0 -751 25 -24 24 -25 271 0 271 0 24 25
25 24 0 471 0 471 -25 24 c-32 33 -78 33 -110 0 l-25 -24 0 -416 0 -415 -160
0 -160 0 0 640 0 640 160 0 160 0 0 -95 c0 -88 2 -98 25 -120 32 -33 78 -33
110 0 24 23 25 28 25 175 0 147 -1 152 -25 175 l-24 25 -271 0 -271 0 -24 -25z"/>
<path d="M3545 3815 l-25 -24 0 -591 0 -591 25 -24 24 -25 271 0 271 0 24 25
c25 24 25 26 25 215 0 189 0 191 -25 215 -15 16 -36 25 -55 25 -19 0 -40 -9
-55 -25 -24 -23 -25 -29 -25 -160 l0 -135 -160 0 -160 0 0 480 0 480 160 0
160 0 0 -215 c0 -216 0 -216 25 -240 32 -33 78 -33 110 0 l25 24 0 271 0 271
-25 24 -24 25 -271 0 -271 0 -24 -25z"/>
<path d="M2745 3495 l-25 -24 0 -431 0 -431 25 -24 24 -25 271 0 271 0 24 25
25 24 0 431 0 431 -25 24 -24 25 -271 0 -271 0 -24 -25z m455 -455 l0 -320
-160 0 -160 0 0 320 0 320 160 0 160 0 0 -320z"/>
<path d="M1945 3175 l-25 -24 0 -271 0 -271 25 -24 24 -25 271 0 271 0 24 25
25 24 0 271 0 271 -25 24 -24 25 -271 0 -271 0 -24 -25z m455 -295 l0 -160
-160 0 -160 0 0 160 0 160 160 0 160 0 0 -160z"/>
<path d="M1269 3105 c-183 -35 -355 -123 -490 -252 -130 -125 -211 -257 -265
-438 -25 -82 -28 -104 -28 -255 0 -151 3 -173 28 -255 54 -181 135 -313 265
-438 324 -309 820 -354 1190 -107 307 205 476 579 421 930 -16 98 -73 138
-131 91 -23 -19 -24 -23 -24 -183 -1 -173 -10 -226 -60 -351 -55 -135 -181
-282 -310 -362 -407 -254 -940 -101 -1145 329 -146 308 -85 669 154 909 186
186 467 274 711 222 38 -8 84 -15 101 -15 65 0 98 84 51 128 -12 11 -49 28
-82 37 -85 23 -291 28 -386 10z"/>
<path d="M1385 2775 c-21 -20 -25 -34 -25 -84 l0 -61 -42 -21 c-164 -82 -208
-296 -88 -432 50 -56 105 -83 194 -96 57 -8 75 -16 100 -41 26 -26 31 -38 31
-80 0 -43 -5 -54 -33 -82 -28 -28 -39 -33 -82 -33 -65 0 -105 37 -119 110 -16
83 -84 113 -138 59 -23 -23 -25 -31 -20 -78 10 -99 66 -180 158 -227 39 -19
39 -20 39 -80 0 -50 4 -64 25 -84 15 -16 36 -25 55 -25 19 0 40 9 55 25 21 20
25 34 25 84 0 60 0 61 39 80 168 86 212 296 91 434 -50 56 -105 83 -194 96
-57 8 -75 16 -100 41 -26 26 -31 38 -31 80 0 43 5 54 33 82 28 28 39 33 82 33
65 0 105 -37 119 -110 16 -83 84 -113 138 -59 23 23 25 31 20 78 -10 99 -66
180 -158 227 -39 19 -39 20 -39 80 0 50 -4 64 -25 84 -15 16 -36 25 -55 25
-19 0 -40 -9 -55 -25z"/>
<path d="M2745 2055 c-16 -15 -25 -36 -25 -55 0 -19 9 -40 25 -55 l24 -25 351
0 351 0 24 25 c16 15 25 36 25 55 0 19 -9 40 -25 55 l-24 25 -351 0 -351 0
-24 -25z"/>
<path d="M2425 1735 c-25 -24 -25 -26 -25 -215 0 -189 0 -191 25 -215 l24 -25
511 0 511 0 24 25 c25 24 25 26 25 215 0 189 0 191 -25 215 l-24 25 -511 0
-511 0 -24 -25z m935 -215 l0 -80 -400 0 -400 0 0 80 0 80 400 0 400 0 0 -80z"/>
</g>
</svg>
