<?xml version="1.0" encoding="UTF-8"?>
<!DOCTYPE svg PUBLIC "-//W3C//DTD SVG 1.1//EN" "http://www.w3.org/Graphics/SVG/1.1/DTD/svg11.dtd">
<svg xmlns="http://www.w3.org/2000/svg" version="1.1" width="48px" height="48px" style="shape-rendering:geometricPrecision; text-rendering:geometricPrecision; image-rendering:optimizeQuality; fill-rule:evenodd; clip-rule:evenodd" xmlns:xlink="http://www.w3.org/1999/xlink">
<g><path style="opacity:0.788" fill="#326565" d="M 47.5,13.5 C 47.5,17.8333 47.5,22.1667 47.5,26.5C 41.8837,36.9733 33.217,40.9733 21.5,38.5C 21.2436,40.7925 21.5769,42.9592 22.5,45C 20.8659,45.4935 19.1992,45.6602 17.5,45.5C 17.9402,42.8911 18.2735,40.2244 18.5,37.5C 12.3401,33.5158 9.00674,27.8491 8.5,20.5C 8.31001,16.9682 8.97667,13.6348 10.5,10.5C 16.051,1.56939 24.051,-1.59728 34.5,1C 40.6846,3.35314 45.018,7.51981 47.5,13.5 Z M 44.5,15.5 C 38.9099,13.3716 33.5765,10.7049 28.5,7.5C 25.8068,8.84661 23.1401,10.1799 20.5,11.5C 19.0351,10.2632 17.3684,9.26315 15.5,8.5C 19.9129,3.19639 25.5795,1.36305 32.5,3C 38.7566,5.08826 42.7566,9.25492 44.5,15.5 Z M 43.5,18.5 C 44.6491,18.7911 45.3158,19.6244 45.5,21C 42.4889,33.5909 34.6556,38.4242 22,35.5C 21.3333,33.8333 21.3333,32.1667 22,30.5C 26.5529,33.1876 31.0529,33.021 35.5,30C 37.6801,27.5823 38.0135,24.9156 36.5,22C 39.1739,21.3299 41.5073,20.1632 43.5,18.5 Z M 11.5,22.5 C 12.4822,23.1408 13.4822,23.8075 14.5,24.5C 15.6223,23.3698 16.9557,22.7031 18.5,22.5C 18.6653,26.1817 18.4986,29.8484 18,33.5C 13.9281,30.9347 11.7615,27.268 11.5,22.5 Z"/></g>
<g><path style="opacity:0.796" fill="#aaefef" d="M 10.5,10.5 C 8.97667,13.6348 8.31001,16.9682 8.5,20.5C 5.59388,19.2134 2.59388,18.2134 -0.5,17.5C -0.5,16.8333 -0.5,16.1667 -0.5,15.5C 3.04319,13.5617 6.70986,11.8951 10.5,10.5 Z"/></g>
<g><path style="opacity:0.892" fill="#adefef" d="M 15.5,8.5 C 17.3684,9.26315 19.0351,10.2632 20.5,11.5C 17.5638,13.3079 14.5638,15.1412 11.5,17C 14.3361,18.391 16.6694,20.2243 18.5,22.5C 16.9557,22.7031 15.6223,23.3698 14.5,24.5C 13.4822,23.8075 12.4822,23.1408 11.5,22.5C 10.0883,18.111 10.5883,13.7777 13,9.5C 13.6708,8.74756 14.5041,8.41423 15.5,8.5 Z"/></g>
</svg>
