<?xml version="1.0" standalone="no"?>
<!DOCTYPE svg PUBLIC "-//W3C//DTD SVG 20010904//EN"
 "http://www.w3.org/TR/2001/REC-SVG-20010904/DTD/svg10.dtd">
<svg version="1.0" xmlns="http://www.w3.org/2000/svg"
 width="512.000000pt" height="512.000000pt" viewBox="0 0 512.000000 512.000000"
 preserveAspectRatio="xMidYMid meet">

<g transform="translate(0.000000,512.000000) scale(0.100000,-0.100000)"
fill="#000000" stroke="none">
<path d="M2243 4861 c-97 -33 -171 -111 -197 -205 -8 -28 -20 -125 -26 -216
-7 -91 -13 -166 -15 -168 -2 -2 -50 -19 -107 -39 -56 -19 -154 -59 -217 -89
-63 -30 -119 -54 -125 -54 -6 0 -60 43 -121 96 -148 128 -183 151 -256 170
-74 19 -131 13 -209 -22 -44 -20 -93 -63 -246 -217 -216 -217 -236 -248 -242
-362 -6 -114 16 -158 163 -325 69 -77 125 -142 125 -144 0 -2 -21 -48 -47
-102 -25 -54 -63 -148 -84 -209 -28 -83 -42 -111 -56 -112 -10 -2 -95 -9 -190
-17 -191 -16 -233 -29 -301 -91 -23 -20 -52 -59 -66 -88 l-26 -51 0 -312 c0
-222 4 -321 12 -341 36 -84 105 -149 191 -179 22 -8 119 -19 216 -25 104 -7
180 -16 187 -23 6 -6 25 -51 43 -101 18 -49 55 -137 82 -194 27 -57 49 -109
49 -115 0 -6 -43 -60 -96 -121 -52 -60 -108 -129 -125 -152 -38 -54 -63 -151
-54 -212 14 -96 45 -142 217 -318 240 -245 311 -290 368 -233 19 19 20 33 20
249 0 125 5 252 10 281 22 119 100 230 197 282 27 15 94 42 150 62 56 19 116
42 132 51 28 14 38 14 121 -2 49 -10 89 -22 87 -28 -2 -5 -41 -141 -87 -302
-52 -184 -80 -301 -76 -316 7 -30 218 -263 244 -269 10 -3 32 0 48 7 39 17
254 237 255 261 2 33 -1 44 -92 338 -50 158 -89 290 -87 291 2 2 42 12 90 24
87 20 88 20 120 1 18 -10 86 -37 151 -60 65 -22 135 -51 155 -64 61 -39 121
-107 155 -176 l32 -65 5 -288 5 -289 29 -25 c33 -28 70 -25 99 9 15 18 17 48
17 292 0 196 -4 286 -14 324 l-13 52 51 24 c28 13 76 31 106 41 30 10 70 24
88 32 28 13 41 14 92 3 33 -7 60 -14 60 -16 0 -2 -29 -107 -65 -233 -36 -127
-65 -241 -65 -255 0 -17 29 -57 95 -130 95 -105 119 -122 153 -112 26 9 232
220 232 239 0 8 -34 123 -74 253 -41 131 -74 240 -72 241 2 2 29 10 60 18 52
14 60 13 89 -1 17 -9 69 -29 115 -45 158 -53 227 -113 262 -227 17 -55 20 -93
20 -258 0 -181 1 -195 20 -214 57 -57 128 -12 368 233 191 195 216 236 216
352 0 102 -26 151 -160 307 -62 73 -113 138 -114 144 0 6 22 58 49 115 27 57
63 145 82 194 18 50 37 95 43 101 6 7 86 16 188 23 205 13 260 28 326 91 23
23 54 64 70 93 l27 52 0 305 c0 290 -1 307 -21 351 -31 66 -87 124 -149 154
-46 23 -79 29 -245 43 l-192 17 -37 110 c-21 61 -59 155 -84 209 -26 54 -47
100 -47 102 0 1 56 67 125 145 147 168 169 211 163 324 -6 114 -26 145 -242
362 -223 223 -259 247 -381 247 -102 0 -151 -26 -307 -160 -73 -62 -138 -113
-144 -114 -6 0 -58 22 -115 49 -57 27 -144 63 -194 82 -49 18 -95 37 -101 43
-7 7 -16 83 -23 187 -6 103 -17 194 -26 219 -31 89 -107 163 -198 194 -74 25
-570 23 -644 -3z m604 -142 c35 -13 71 -46 90 -83 10 -19 18 -85 25 -200 5
-94 14 -188 19 -209 16 -63 63 -99 181 -140 58 -20 156 -61 218 -92 122 -59
171 -68 233 -41 18 8 93 66 167 130 219 189 218 189 473 -63 104 -102 195
-198 203 -213 21 -40 17 -107 -9 -150 -12 -20 -71 -92 -130 -159 -60 -67 -116
-138 -124 -157 -22 -52 -12 -101 46 -222 27 -58 66 -154 87 -214 20 -59 48
-121 61 -136 37 -44 85 -57 271 -70 207 -15 244 -28 280 -100 21 -42 22 -55
22 -296 0 -262 -4 -290 -43 -332 -42 -46 -72 -53 -251 -64 -94 -5 -188 -14
-209 -19 -63 -16 -99 -63 -140 -181 -20 -58 -61 -156 -92 -218 -59 -122 -68
-171 -41 -233 8 -18 66 -93 130 -167 185 -213 184 -223 -25 -435 l-149 -150 0
100 c0 55 -7 129 -15 164 -41 174 -172 305 -362 361 l-42 13 81 95 c226 267
363 585 397 920 10 93 3 125 -28 141 -61 33 -107 -1 -116 -86 -38 -357 -172
-671 -385 -895 l-69 -73 -1 86 0 86 53 39 c37 28 60 56 82 99 l30 60 0 270 c0
263 -1 271 -24 323 -32 71 -107 137 -177 158 -43 12 -93 15 -237 12 -160 -3
-188 -6 -228 -24 -58 -27 -116 -85 -143 -143 -20 -43 -21 -62 -21 -331 0 -274
1 -287 22 -326 22 -40 83 -103 122 -124 18 -9 21 -20 21 -86 0 -125 -30 -169
-139 -205 -36 -12 -92 -32 -123 -46 l-57 -25 -68 68 c-81 81 -133 111 -285
165 -142 51 -171 69 -197 123 -17 35 -21 61 -21 153 l0 111 44 26 c60 35 122
108 141 166 14 41 16 97 13 387 l-3 338 -27 50 c-32 62 -103 129 -166 158 -44
21 -62 22 -297 22 l-250 0 -63 -34 c-74 -40 -115 -84 -151 -161 l-26 -55 -3
-318 c-3 -358 1 -388 63 -470 19 -25 60 -61 90 -79 l55 -33 0 -95 c0 -186 -29
-224 -220 -289 -144 -49 -204 -82 -278 -154 -64 -63 -113 -140 -143 -227 -18
-53 -23 -96 -28 -238 l-6 -173 -146 148 c-207 209 -207 220 -23 433 64 74 122
149 130 167 27 62 18 111 -41 233 -31 62 -72 160 -92 218 -41 118 -77 165
-140 181 -21 5 -115 14 -209 19 -179 11 -209 18 -251 64 -39 42 -43 70 -43
332 0 241 1 254 22 296 36 71 78 86 283 100 184 13 231 25 269 71 13 15 39 72
56 126 18 54 57 150 87 213 62 131 72 179 50 232 -8 19 -64 90 -124 157 -59
67 -118 139 -130 159 -26 43 -30 110 -9 150 8 15 99 111 203 213 255 252 254
252 473 63 74 -64 149 -122 167 -130 62 -27 111 -18 230 40 60 30 165 73 233
97 194 68 201 78 220 337 15 207 28 244 100 280 42 21 55 22 296 22 155 0 264
-4 281 -11z m-689 -2048 c45 -23 77 -56 91 -94 13 -33 15 -207 3 -207 -4 0
-53 15 -108 34 -56 18 -162 52 -236 75 l-136 42 -93 -48 c-52 -26 -98 -50
-103 -52 -4 -2 -7 30 -5 71 5 92 35 144 101 177 40 19 59 21 246 21 180 0 207
-2 240 -19z m-132 -387 l234 -76 0 -137 c0 -176 -1 -179 -169 -281 -112 -68
-129 -75 -175 -75 -46 0 -63 8 -178 78 -166 102 -168 106 -168 310 l0 147 108
54 c59 30 109 55 110 55 2 1 109 -33 238 -75z m1514 -72 c19 -9 43 -32 53 -50
19 -33 37 -162 22 -162 -4 0 -91 27 -195 61 l-188 60 -71 -35 c-39 -20 -73
-36 -76 -36 -13 0 -3 79 15 108 39 64 66 72 245 72 132 0 166 -3 195 -18z
m-108 -313 l190 -61 -4 -102 c-2 -72 -8 -110 -19 -127 -22 -32 -217 -149 -250
-149 -28 0 -213 106 -244 140 -17 19 -20 39 -23 149 l-3 126 78 42 c43 23 80
42 82 42 2 1 89 -26 193 -60z m-1564 -332 c50 -11 120 -3 175 18 15 6 17 0 17
-66 1 -41 7 -91 14 -112 8 -20 11 -39 7 -41 -19 -12 -183 -27 -231 -21 -112
12 -111 11 -94 51 8 19 17 71 21 115 5 68 8 79 22 74 9 -4 40 -12 69 -18z
m1477 -252 c28 0 62 3 78 8 27 7 27 7 27 -42 0 -27 4 -61 10 -75 7 -20 6 -26
-8 -30 -43 -12 -127 -17 -173 -11 -46 6 -50 9 -45 29 3 11 9 47 13 79 5 53 7
57 27 50 12 -5 44 -8 71 -8z m-1371 -511 c31 -99 56 -187 56 -195 0 -8 -26
-41 -59 -73 l-58 -58 -49 52 c-27 29 -53 58 -57 66 -5 9 12 86 44 197 50 177
58 202 64 195 1 -2 28 -84 59 -184z m1428 -171 l26 -81 -42 -41 -42 -41 -39
40 -39 40 33 117 c18 65 35 127 38 138 5 15 10 7 23 -35 9 -30 28 -92 42 -137z"/>
<path d="M2420 3974 c-205 -24 -336 -56 -485 -116 -384 -157 -687 -439 -870
-806 -196 -395 -226 -840 -85 -1264 34 -104 111 -267 162 -343 29 -44 38 -50
72 -53 74 -6 100 60 52 136 -153 242 -239 579 -222 865 42 702 540 1273 1229
1409 88 17 147 22 277 22 130 0 189 -5 277 -22 215 -43 432 -135 606 -259 104
-74 266 -235 340 -339 126 -178 228 -419 262 -617 8 -50 36 -77 78 -77 76 0
87 55 42 224 -166 635 -684 1110 -1330 1221 -89 15 -338 27 -405 19z"/>
</g>
</svg>
