<?xml version="1.0" standalone="no"?>
<!DOCTYPE svg PUBLIC "-//W3C//DTD SVG 20010904//EN"
 "http://www.w3.org/TR/2001/REC-SVG-20010904/DTD/svg10.dtd">
<svg version="1.0" xmlns="http://www.w3.org/2000/svg"
 width="512.000000pt" height="512.000000pt" viewBox="0 0 512.000000 512.000000"
 preserveAspectRatio="xMidYMid meet">

<g transform="translate(0.000000,512.000000) scale(0.100000,-0.100000)"
fill="#000000" stroke="none">
<path d="M3086 5099 l-26 -20 0 -164 0 -163 -87 -26 c-49 -15 -141 -52 -206
-83 l-117 -57 -114 112 c-99 98 -117 112 -147 112 -30 0 -52 -19 -231 -198
-179 -179 -198 -201 -198 -231 0 -30 14 -48 113 -149 l113 -114 -48 -92 c-26
-51 -63 -140 -82 -197 l-35 -104 -161 -5 -162 -5 -24 -28 c-22 -25 -24 -37
-24 -122 l0 -94 -652 -3 c-648 -3 -653 -3 -693 -25 -22 -12 -54 -36 -72 -55
-67 -70 -63 20 -63 -1331 l0 -1225 -62 -4 c-52 -4 -65 -9 -85 -33 l-25 -28 4
-227 3 -226 37 -75 c46 -93 112 -158 206 -202 l67 -32 1880 -3 c1399 -2 1894
0 1935 8 158 34 285 161 319 318 6 29 11 140 11 247 0 189 -1 195 -23 221 -20
23 -34 28 -85 32 l-62 4 0 584 c0 321 3 584 6 584 3 0 17 -9 31 -20 14 -11 40
-20 57 -20 26 0 57 26 228 198 179 179 198 201 198 231 0 30 -14 48 -112 147
l-112 114 57 117 c31 65 68 157 83 206 l26 87 163 0 164 0 20 26 c20 26 21 39
21 300 l0 273 -24 28 -24 28 -163 5 c-154 5 -164 6 -167 25 -10 52 -58 180
-104 273 l-51 103 111 113 c98 99 112 117 112 147 0 30 -19 52 -198 231 -179
179 -201 198 -231 198 -30 0 -48 -14 -147 -112 l-113 -111 -103 51 c-57 28
-147 65 -200 83 l-97 31 -3 160 -3 160 -28 24 -28 24 -273 0 c-261 0 -274 -1
-300 -21z m464 -293 c0 -182 2 -185 140 -222 126 -33 245 -83 335 -138 111
-70 118 -68 247 61 l108 108 117 -118 118 -117 -108 -108 c-129 -129 -131
-136 -61 -247 55 -90 105 -209 138 -335 37 -138 40 -140 222 -140 l144 0 0
-165 0 -165 -148 0 c-169 0 -182 -5 -202 -83 -40 -160 -113 -334 -179 -432
-12 -16 -21 -45 -21 -64 0 -30 13 -47 105 -140 l105 -107 -118 -117 -117 -117
-100 101 c-55 55 -111 105 -124 110 -20 8 -34 5 -70 -16 -179 -99 -289 -143
-458 -185 -65 -16 -73 -40 -73 -210 l0 -140 -165 0 -165 0 0 150 c0 145 -1
152 -23 174 -14 14 -43 27 -68 31 -75 13 -232 70 -315 115 -43 23 -98 53 -121
65 -24 13 -52 21 -66 18 -14 -3 -69 -50 -128 -109 l-104 -104 -117 117 -118
118 106 106 c84 84 105 112 106 135 1 18 -19 63 -50 118 -67 117 -106 211
-136 332 -35 136 -32 134 -217 134 l-149 0 0 165 0 165 141 0 c176 0 200 11
215 95 18 106 81 260 178 432 14 25 22 51 19 66 -3 14 -50 69 -109 128 l-104
104 117 117 117 118 107 -105 c119 -118 142 -127 209 -81 96 65 275 139 427
176 78 19 83 32 83 202 l0 148 165 0 165 0 0 -144z m-1898 -1607 c4 -141 2
-139 208 -139 l157 0 32 -101 c18 -56 56 -148 85 -205 l53 -103 -109 -108
c-60 -59 -111 -118 -114 -131 -4 -12 -1 -35 5 -51 15 -36 368 -386 399 -396
42 -12 65 3 175 113 l108 109 103 -53 c57 -29 149 -67 205 -85 l101 -32 0
-157 c0 -140 2 -160 19 -181 l19 -24 280 -3 280 -3 28 25 29 24 5 162 5 161
104 35 c57 19 146 56 197 83 52 26 96 46 99 43 3 -3 5 -308 5 -679 l0 -673
-1900 0 -1900 0 0 1210 0 1211 25 24 24 25 635 0 634 0 4 -101z m-492 -2609
c0 -39 6 -85 14 -104 19 -46 72 -104 120 -129 l41 -22 895 0 895 0 41 22 c53
28 107 91 122 142 7 21 12 66 12 100 l0 61 496 0 495 0 -3 -163 c-3 -162 -3
-164 -33 -213 -19 -30 -49 -60 -79 -79 l-49 -30 -1889 -3 -1888 -2 -43 21
c-58 29 -85 56 -113 111 -22 44 -24 58 -24 203 l0 155 495 0 495 0 0 -70z
m1978 9 c-8 -109 81 -99 -910 -99 l-859 0 -24 25 c-21 20 -25 34 -25 80 l0 55
911 0 911 0 -4 -61z"/>
<path d="M3235 4450 c-153 -24 -320 -89 -452 -177 -76 -50 -192 -161 -254
-242 -63 -83 -152 -263 -179 -360 -136 -501 106 -1028 575 -1252 233 -112 498
-136 746 -69 97 27 277 116 360 179 529 402 573 1177 93 1631 -154 146 -317
233 -518 276 -87 19 -289 26 -371 14z m333 -176 c355 -73 635 -355 707 -713
23 -113 16 -314 -14 -419 -50 -173 -167 -349 -305 -460 -78 -62 -235 -147
-293 -158 l-33 -6 0 165 0 166 55 36 c115 73 204 188 246 317 35 105 35 281 0
386 -46 142 -152 269 -280 336 -85 45 -131 47 -160 10 -20 -25 -21 -39 -21
-268 l0 -242 -44 -43 -43 -42 -42 48 -41 48 0 239 c0 232 -1 240 -22 263 -31
33 -77 30 -159 -13 -103 -54 -190 -147 -244 -259 -50 -105 -65 -166 -65 -273
0 -103 22 -188 71 -283 46 -89 142 -192 214 -230 l45 -24 0 -167 c0 -196 8
-186 -111 -134 -288 125 -490 384 -540 690 -15 94 -7 276 16 366 25 97 99 245
163 329 128 168 322 291 527 334 95 21 277 21 373 1z m-320 -1025 c141 -143
132 -143 274 -1 l108 108 0 194 0 194 44 -43 c25 -24 58 -72 75 -106 110 -224
25 -482 -197 -594 -34 -17 -66 -40 -72 -50 -6 -12 -10 -109 -10 -245 l0 -226
-85 0 -85 0 0 226 c0 136 -4 233 -10 245 -6 10 -38 33 -71 49 -137 70 -222
192 -244 350 -15 106 37 259 117 346 l43 47 3 -193 2 -193 108 -108z"/>
<path d="M543 3130 c-12 -5 -26 -18 -32 -29 -8 -13 -11 -337 -11 -1041 l0
-1021 25 -24 24 -25 1681 0 1681 0 24 25 25 24 0 226 0 225 -80 0 -80 0 0
-165 0 -165 -1570 0 -1570 0 0 905 0 905 413 2 412 3 3 83 3 82 -463 -1 c-255
0 -473 -4 -485 -9z"/>
</g>
</svg>
