<?xml version="1.0" standalone="no"?>
<!DOCTYPE svg PUBLIC "-//W3C//DTD SVG 20010904//EN"
 "http://www.w3.org/TR/2001/REC-SVG-20010904/DTD/svg10.dtd">
<svg version="1.0" xmlns="http://www.w3.org/2000/svg"
 width="512.000000pt" height="512.000000pt" viewBox="0 0 512.000000 512.000000"
 preserveAspectRatio="xMidYMid meet">

<g transform="translate(0.000000,512.000000) scale(0.100000,-0.100000)"
fill="#000000" stroke="none">
<path d="M3722 4945 c-109 -24 -164 -43 -257 -88 -522 -255 -733 -884 -470
-1407 54 -109 111 -184 210 -279 l87 -84 -263 -263 -264 -264 -352 0 c-314 0
-353 2 -353 16 0 27 -101 119 -146 132 -94 28 -169 8 -239 -63 -102 -101 -102
-229 0 -330 70 -71 145 -91 239 -63 45 13 146 105 146 132 0 13 15 16 90 16
l90 0 0 -720 0 -720 80 0 80 0 0 720 0 720 217 0 217 0 302 301 301 301 49
-25 c134 -68 317 -103 488 -94 594 31 1041 546 985 1136 -24 257 -132 476
-324 659 -144 137 -315 227 -507 266 -95 20 -317 20 -406 1z m418 -1392 l300
-338 -27 -22 c-16 -13 -59 -38 -98 -57 -349 -171 -741 -108 -1014 164 -209
208 -296 485 -246 775 62 353 356 650 701 708 l79 13 3 -453 2 -453 300 -337z
m29 1210 c320 -92 567 -374 619 -705 l9 -58 -399 0 -398 0 0 398 0 399 58 -9
c31 -5 81 -16 111 -25z m619 -980 c-23 -152 -98 -314 -200 -437 l-24 -29 -204
229 c-112 126 -217 244 -234 262 l-30 32 351 0 350 0 -9 -57z m-2893 -1248
c50 -49 15 -135 -55 -135 -19 0 -40 9 -55 25 -16 15 -25 36 -25 55 0 19 9 40
25 55 15 16 36 25 55 25 19 0 40 -9 55 -25z"/>
<path d="M2480 4547 c-19 -6 -58 -34 -86 -62 -70 -70 -84 -124 -62 -246 2 -11
-62 -73 -185 -178 l-188 -162 -44 39 c-67 59 -143 75 -229 50 -45 -13 -146
-105 -146 -132 0 -14 -23 -16 -180 -16 -157 0 -180 2 -180 16 0 27 -101 119
-146 132 -94 28 -169 8 -239 -63 -70 -69 -92 -153 -64 -235 l12 -32 -119 -119
c-94 -95 -123 -119 -139 -114 -100 30 -180 11 -250 -59 -101 -102 -101 -230 0
-331 101 -102 229 -102 330 0 70 69 92 153 64 235 l-12 32 119 119 c94 95 123
119 139 114 101 -31 180 -11 253 61 28 29 52 60 52 68 0 14 23 16 180 16 157
0 180 -2 180 -16 0 -8 24 -39 53 -67 73 -73 146 -93 241 -65 52 16 136 98 156
155 13 35 50 71 234 229 l219 187 44 -11 c97 -26 168 -8 238 63 52 51 75 102
75 165 0 63 -23 114 -75 165 -70 71 -152 91 -245 62z m135 -172 c16 -15 25
-36 25 -55 0 -19 -9 -40 -25 -55 -49 -50 -135 -15 -135 55 0 41 39 80 80 80
19 0 40 -9 55 -25z m-1600 -560 c50 -49 15 -135 -55 -135 -41 0 -80 39 -80 80
0 41 39 80 80 80 19 0 40 -9 55 -25z m800 0 c50 -49 15 -135 -55 -135 -41 0
-80 39 -80 80 0 41 39 80 80 80 19 0 40 -9 55 -25z m-1360 -560 c50 -49 15
-135 -55 -135 -41 0 -80 39 -80 80 0 41 39 80 80 80 19 0 40 -9 55 -25z"/>
<path d="M869 3026 c-20 -7 -49 -22 -65 -34 -55 -39 -602 -597 -620 -632 -18
-33 -19 -82 -22 -1010 -2 -750 0 -985 10 -1020 16 -59 96 -141 154 -158 31 -9
267 -12 956 -12 1038 0 975 -5 1051 80 57 64 67 101 67 264 l0 136 1280 0
1280 0 0 80 0 80 -80 0 -80 0 0 975 0 976 -25 24 -24 25 -271 0 -271 0 -24
-25 c-25 -24 -25 -24 -25 -240 l0 -215 -215 0 c-288 0 -265 23 -265 -265 l0
-215 -215 0 c-288 0 -265 23 -265 -265 l0 -215 -215 0 c-216 0 -216 0 -240
-25 l-25 -24 0 -256 0 -255 -290 0 c-256 0 -290 2 -290 16 0 27 -101 119 -146
132 -94 28 -169 8 -239 -63 -102 -101 -102 -229 0 -330 70 -71 145 -91 239
-63 45 13 146 105 146 132 0 12 11 16 50 16 l50 0 0 -135 c0 -131 -1 -137 -25
-160 l-24 -25 -911 0 -911 0 -24 25 -25 24 0 936 0 935 216 0 c257 0 279 5
349 75 70 70 75 92 75 349 l0 216 615 0 616 0 24 -25 c21 -20 25 -34 25 -80
l0 -55 80 0 80 0 0 56 c0 81 -18 129 -67 184 -75 83 -45 80 -782 80 -502 -1
-654 -4 -682 -14z m-69 -421 c0 -152 -1 -156 -25 -180 -24 -24 -28 -25 -182
-25 l-158 0 180 180 c99 99 181 180 182 180 2 0 3 -70 3 -155z m3840 -885 l0
-920 -160 0 -160 0 0 920 0 920 160 0 160 0 0 -920z m-480 -240 l0 -680 -160
0 -160 0 0 680 0 680 160 0 160 0 0 -680z m-480 -240 l0 -440 -160 0 -160 0 0
440 0 440 160 0 160 0 0 -440z m-480 -240 l0 -200 -160 0 -160 0 0 200 0 200
160 0 160 0 0 -200z m-1225 -225 c50 -49 15 -135 -55 -135 -19 0 -40 9 -55 25
-16 15 -25 36 -25 55 0 19 9 40 25 55 15 16 36 25 55 25 19 0 40 -9 55 -25z"/>
<path d="M1200 2400 l0 -80 120 0 120 0 0 80 0 80 -120 0 -120 0 0 -80z"/>
<path d="M560 2000 l0 -80 240 0 240 0 0 80 0 80 -240 0 -240 0 0 -80z"/>
<path d="M1200 2000 l0 -80 200 0 200 0 0 80 0 80 -200 0 -200 0 0 -80z"/>
<path d="M1760 2000 l0 -80 120 0 120 0 0 80 0 80 -120 0 -120 0 0 -80z"/>
<path d="M560 1600 l0 -80 160 0 160 0 0 80 0 80 -160 0 -160 0 0 -80z"/>
<path d="M1040 1600 l0 -80 480 0 480 0 0 80 0 80 -480 0 -480 0 0 -80z"/>
<path d="M560 1200 l0 -80 400 0 400 0 0 80 0 80 -400 0 -400 0 0 -80z"/>
<path d="M1520 1200 l0 -80 240 0 240 0 0 80 0 80 -240 0 -240 0 0 -80z"/>
<path d="M560 800 l0 -80 160 0 160 0 0 80 0 80 -160 0 -160 0 0 -80z"/>
<path d="M1040 800 l0 -80 240 0 240 0 0 80 0 80 -240 0 -240 0 0 -80z"/>
</g>
</svg>
