<?xml version="1.0" standalone="no"?>
<!DOCTYPE svg PUBLIC "-//W3C//DTD SVG 20010904//EN"
 "http://www.w3.org/TR/2001/REC-SVG-20010904/DTD/svg10.dtd">
<svg version="1.0" xmlns="http://www.w3.org/2000/svg"
 width="512.000000pt" height="512.000000pt" viewBox="0 0 512.000000 512.000000"
 preserveAspectRatio="xMidYMid meet">

<g transform="translate(0.000000,512.000000) scale(0.100000,-0.100000)"
fill="#000000" stroke="none">
<path d="M1695 3506 c-41 -18 -83 -69 -91 -111 -16 -88 -21 -82 369 -472 l362
-363 -362 -362 c-391 -392 -385 -385 -368 -475 9 -49 69 -109 118 -118 90 -17
83 -23 475 368 l362 362 363 -362 c391 -391 384 -385 474 -368 49 9 109 69
118 118 17 90 23 83 -368 475 l-362 362 362 363 c391 391 385 384 368 474 -9
49 -69 109 -118 118 -90 17 -83 23 -475 -368 l-362 -362 -358 357 c-196 196
-370 362 -385 368 -38 14 -85 12 -122 -4z"/>
</g>
</svg>
